<?xml version="1.0" encoding="utf-8"?>
<!-- Svg Vector Icons : http://www.onlinewebfonts.com/icon -->
<!DOCTYPE svg PUBLIC "-//W3C//DTD SVG 1.1//EN" "http://www.w3.org/Graphics/SVG/1.1/DTD/svg11.dtd">
<svg version="1.1" xmlns="http://www.w3.org/2000/svg" xmlns:xlink="http://www.w3.org/1999/xlink" x="0px" y="0px" viewBox="0 0 1000 1000" enable-background="new 0 0 1000 1000" xml:space="preserve">
<metadata> Svg Vector Icons : http://www.onlinewebfonts.com/icon </metadata>
<g><path d="M967.2,750.7L967.2,750.7c-30.4,29.2-79.7,29.2-110.1,0L445,355c-30.4-29.2-30.4-76.5,0-105.7c30.3-29.2,79.6-29.2,110,0L967.2,645C997.6,674.2,997.6,721.6,967.2,750.7"/><path d="M32.8,750.7L32.8,750.7c-30.4-29.2-30.4-76.5,0-105.7L445,249.3c30.3-29.2,79.6-29.2,110,0c30.4,29.2,30.4,76.5,0,105.7L142.9,750.7C112.4,779.9,63.2,779.9,32.8,750.7"/></g>
</svg>